<svg width="27" height="27" viewBox="0 0 27 27" fill="none" xmlns="http://www.w3.org/2000/svg">
<path d="M4.19983 23.8455H19.9495L19.1973 21.3649L20.9967 22.9376L22.6457 24.4429L25.6501 27V2.78437C25.575 1.27912 24.3026 0 22.7253 0L4.20535 0.003375C2.62916 0.003375 1.3501 1.28475 1.3501 2.79V21.06C1.3501 22.6474 2.62695 23.8455 4.19983 23.8455ZM15.8506 6.39337L15.8141 6.40688L15.8274 6.39337H15.8506ZM7.42178 7.821C9.44642 6.32025 11.323 6.39225 11.323 6.39225L11.4744 6.54413C8.99687 7.146 7.87354 8.27325 7.87354 8.27325C7.87354 8.27325 8.17398 8.12362 8.69864 7.89525C12.0355 6.55875 15.6794 6.6555 19.0527 8.3475C19.0527 8.3475 17.9271 7.29338 15.602 6.61837L15.8075 6.4125C16.1289 6.41362 17.8299 6.47437 19.6502 7.83C19.6502 7.83 21.687 11.3737 21.687 15.7275C21.6196 15.6442 20.4234 17.6017 17.345 17.6693C17.345 17.6693 16.8237 17.0685 16.4525 16.5443C18.253 16.0177 18.9267 14.9648 18.9267 14.9648C18.3358 15.3439 17.7968 15.5689 17.3594 15.7939C16.6867 16.0954 16.0129 16.2439 15.3403 16.3958C12.1548 16.9223 10.3665 16.0414 8.67655 15.3427L8.09887 15.0435C8.09887 15.0435 8.77154 16.0965 10.5002 16.623C10.0462 17.1506 9.59663 17.7502 9.59663 17.7502C6.51937 17.676 5.39715 15.7185 5.39715 15.7185C5.39715 11.358 7.42178 7.821 7.42178 7.821Z" fill="white"/>
<path d="M16.2001 14.85C16.9442 14.85 17.5501 13.9416 17.5501 12.8212C17.5501 11.7084 16.9473 10.8 16.2001 10.8V10.8045C15.4592 10.8045 14.8522 11.7099 14.8501 12.8303C14.8501 13.9416 15.456 14.85 16.2001 14.85Z" fill="white"/>
<path d="M10.8 14.85C11.544 14.85 12.15 13.9416 12.15 12.8212C12.15 11.7084 11.5482 10.8 10.8041 10.8L10.8 10.8045C10.0559 10.8045 9.44995 11.7099 9.44995 12.8303C9.44995 13.9416 10.0559 14.85 10.8 14.85Z" fill="white"/>
</svg>
