<svg width="24" height="24" viewBox="0 0 24 24" fill="none" xmlns="http://www.w3.org/2000/svg">
<path d="M17.5034 0H6.49657C2.9143 0 0 2.9143 0 6.49657V17.5036C0 21.0857 2.9143 24 6.49657 24H17.5036C21.0857 24 24 21.0857 24 17.5036V6.49657C24 2.9143 21.0857 0 17.5034 0V0ZM12 18.5623C8.38145 18.5623 5.43767 15.6185 5.43767 12C5.43767 8.38145 8.38145 5.43767 12 5.43767C15.6185 5.43767 18.5623 8.38145 18.5623 12C18.5623 15.6185 15.6185 18.5623 12 18.5623ZM18.7192 6.98528C17.6499 6.98528 16.7801 6.11553 16.7801 5.04619C16.7801 3.97686 17.6499 3.10693 18.7192 3.10693C19.7885 3.10693 20.6585 3.97686 20.6585 5.04619C20.6585 6.11553 19.7885 6.98528 18.7192 6.98528Z" fill="white"/>
<path d="M12.0001 6.84467C9.15753 6.84467 6.84473 9.15728 6.84473 12C6.84473 14.8425 9.15753 17.1553 12.0001 17.1553C14.8428 17.1553 17.1554 14.8425 17.1554 12C17.1554 9.15728 14.8428 6.84467 12.0001 6.84467Z" fill="white"/>
<path d="M18.7191 4.5141C18.4258 4.5141 18.187 4.75287 18.187 5.0462C18.187 5.33954 18.4258 5.57831 18.7191 5.57831C19.0126 5.57831 19.2514 5.33972 19.2514 5.0462C19.2514 4.75269 19.0126 4.5141 18.7191 4.5141Z" fill="white"/>
</svg>
