<svg width="83" height="82" viewBox="0 0 83 82" fill="none" xmlns="http://www.w3.org/2000/svg">
<path d="M41.6901 0.000111611C30.8494 0.050702 20.47 4.39265 12.8224 12.0762C5.1747 19.7597 0.881352 30.1593 0.88147 41.0001C0.88147 51.8739 5.20109 62.3024 12.8901 69.9914C20.5791 77.6804 31.0076 82 41.8814 82C52.7553 82 63.1838 77.6804 70.8727 69.9914C78.5617 62.3024 82.8814 51.8739 82.8814 41.0001C82.8814 30.1262 78.5617 19.6977 70.8727 12.0087C63.1838 4.31974 52.7553 0.000111611 41.8814 0.000111611C41.8176 -3.72037e-05 41.7539 -3.72037e-05 41.6901 0.000111611ZM58.6436 24.6821C58.9852 24.6752 59.7403 24.7607 60.2323 25.1604C60.5592 25.4443 60.7677 25.8406 60.8166 26.2708C60.8712 26.5886 60.9396 27.3163 60.8849 27.8835C60.2699 34.3683 57.5981 50.0986 56.2382 57.359C55.6642 60.434 54.5333 61.4624 53.4366 61.5615C51.0586 61.7836 49.2512 59.9899 46.9449 58.4797C43.3369 56.1119 41.2972 54.6394 37.7951 52.3297C33.7463 49.6647 36.3703 48.1955 38.6766 45.8039C39.2813 45.1752 49.7705 35.6325 49.9755 34.7681C49.9994 34.6587 50.0233 34.2556 49.7842 34.0437C49.545 33.8319 49.1897 33.9036 48.9334 33.9617C48.5712 34.0437 42.8073 37.8567 31.6417 45.3905C30.0017 46.518 28.5223 47.0646 27.1932 47.0305C25.7309 47.0031 22.9155 46.207 20.8211 45.5271C18.2518 44.69 16.212 44.2493 16.3897 42.8314C16.4819 42.0934 17.5001 41.3383 19.4408 40.5661C31.3923 35.3591 39.3599 31.9254 43.3506 30.2683C54.7349 25.5328 57.1026 24.7094 58.6436 24.6821Z" fill="white"/>
</svg>
