<svg width="83" height="68" viewBox="0 0 83 68" fill="none" xmlns="http://www.w3.org/2000/svg">
<path d="M82.8978 8.53312C79.8809 9.87245 76.6385 10.7744 73.2355 11.181C76.7103 9.10028 79.3787 5.8032 80.6326 1.87404C77.3833 3.80104 73.7822 5.20187 69.9487 5.95695C66.8839 2.68721 62.5072 0.644043 57.6692 0.644043C46.8076 0.644043 38.8263 10.7779 41.2795 21.2978C27.3019 20.5973 14.9063 13.9007 6.60719 3.72246C2.1997 11.2835 4.32144 21.1748 11.8108 26.1836C9.05694 26.0948 6.46027 25.3397 4.19503 24.0789C4.01053 31.8723 9.59677 39.1635 17.6874 40.7864C15.3197 41.4287 12.7264 41.5791 10.0888 41.0734C12.2276 47.7564 18.4391 52.6183 25.8054 52.755C18.7329 58.3002 9.82227 60.7773 0.897949 59.725C8.34286 64.498 17.1886 67.2826 26.6869 67.2826C57.922 67.2826 75.5691 40.9026 74.5031 17.2422C77.7899 14.8676 80.6428 11.9054 82.8978 8.53312Z" fill="white"/>
</svg>
