<svg width="14" height="14" viewBox="0 0 14 14" fill="none" xmlns="http://www.w3.org/2000/svg">
<g clip-path="url(#clip0)">
<path d="M10.2308 4.98077H14V3.23077C14 2.11736 13.0942 1.21155 11.9808 1.21155H2.01923C0.905816 1.21155 0 2.11736 0 3.23077V10.7692C0 11.8826 0.905816 12.7885 2.01923 12.7885H11.9808C13.0942 12.7885 14 11.8826 14 10.7692V9.01923H10.2308C9.11736 9.01923 8.21155 8.11341 8.21155 7C8.21155 5.88659 9.11736 4.98077 10.2308 4.98077Z" fill="white"/>
<path d="M10.2308 5.78845C9.5628 5.78845 9.01929 6.33194 9.01929 7C9.01929 7.66806 9.56277 8.21155 10.2308 8.21155H14.0001V5.78848H10.2308V5.78845ZM10.7693 7.40384H10.2308C10.0078 7.40384 9.82699 7.22301 9.82699 7C9.82699 6.77698 10.0078 6.59616 10.2308 6.59616H10.7693C10.9923 6.59616 11.1731 6.77698 11.1731 7C11.1731 7.22301 10.9923 7.40384 10.7693 7.40384Z" fill="white"/>
</g>
<defs>
<clipPath id="clip0">
<rect width="14" height="14" fill="white"/>
</clipPath>
</defs>
</svg>
